<svg width="577" height="148" viewBox="0 0 577 148" fill="none" xmlns="http://www.w3.org/2000/svg">
<g clip-path="url(#clip0_30_7)">
<path d="M54.75 9.25C54.75 14.3664 58.8277 18.5 63.875 18.5C99.1488 18.5 127.75 47.493 127.75 83.25C127.75 88.3664 131.828 92.5 136.875 92.5C141.922 92.5 146 88.3664 146 83.25C146 37.2602 109.243 0 63.875 0C58.8277 0 54.75 4.13359 54.75 9.25ZM54.75 37C54.75 42.1164 58.8277 46.25 63.875 46.25C84.0355 46.25 100.375 62.8133 100.375 83.25C100.375 88.3664 104.453 92.5 109.5 92.5C114.547 92.5 118.625 88.3664 118.625 83.25C118.625 52.6094 94.1016 27.75 63.875 27.75C58.8277 27.75 54.75 31.8836 54.75 37ZM27.375 41.625C27.375 33.9648 21.2441 27.75 13.6875 27.75C6.13086 27.75 0 33.9648 0 41.625V106.375C0 129.355 18.3926 148 41.0625 148C63.7324 148 82.125 129.355 82.125 106.375C82.125 83.3945 63.7324 64.75 41.0625 64.75H36.5V92.5H41.0625C48.6191 92.5 54.75 98.7148 54.75 106.375C54.75 114.035 48.6191 120.25 41.0625 120.25C33.5059 120.25 27.375 114.035 27.375 106.375V41.625Z" fill="#225DC3"/>
</g>
<path d="M170.8 123V53H201.7C206.5 53 210.567 53.7 213.9 55.1C217.233 56.4333 219.733 58.4 221.4 61C223.133 63.5333 224 66.6 224 70.2C224 74.2 223 77.5667 221 80.3C219.067 83.0333 216.233 84.8667 212.5 85.8L212.3 83.9C215.433 84.5667 218.133 85.7333 220.4 87.4C222.733 89.0667 224.533 91.1333 225.8 93.6C227.067 96 227.7 98.7333 227.7 101.8C227.7 105.333 227.1 108.433 225.9 111.1C224.7 113.7 222.967 115.9 220.7 117.7C218.433 119.5 215.767 120.833 212.7 121.7C209.7 122.567 206.367 123 202.7 123H170.8ZM186.8 108.8H202.1C203.967 108.8 205.533 108.5 206.8 107.9C208.133 107.3 209.167 106.433 209.9 105.3C210.633 104.1 211 102.667 211 101C211 99.4667 210.6 98.1667 209.8 97.1C209.067 96.0333 208 95.2333 206.6 94.7C205.2 94.1 203.533 93.8 201.6 93.8H186.8V108.8ZM186.8 81.1H199.3C201.033 81.1 202.5 80.8333 203.7 80.3C204.967 79.7 205.9 78.9 206.5 77.9C207.167 76.8333 207.5 75.5667 207.5 74.1C207.5 71.9667 206.767 70.3 205.3 69.1C203.833 67.8333 201.633 67.2 198.7 67.2H186.8V81.1ZM239.024 123V49H255.024V123H239.024ZM293.319 124C287.785 124 282.852 122.8 278.519 120.4C274.252 118 270.852 114.733 268.319 110.6C265.852 106.467 264.619 101.733 264.619 96.4C264.619 91.0667 265.852 86.3333 268.319 82.2C270.852 78.0667 274.252 74.8 278.519 72.4C282.852 70 287.785 68.8 293.319 68.8C298.852 68.8 303.752 70 308.019 72.4C312.352 74.8 315.752 78.0667 318.219 82.2C320.685 86.3333 321.919 91.0667 321.919 96.4C321.919 101.733 320.685 106.467 318.219 110.6C315.752 114.733 312.352 118 308.019 120.4C303.752 122.8 298.852 124 293.319 124ZM293.319 110.2C295.719 110.2 297.852 109.6 299.719 108.4C301.585 107.2 303.052 105.567 304.119 103.5C305.185 101.433 305.685 99.0667 305.619 96.4C305.685 93.7333 305.185 91.3667 304.119 89.3C303.052 87.1667 301.585 85.5 299.719 84.3C297.852 83.1 295.719 82.5 293.319 82.5C290.919 82.5 288.752 83.1 286.819 84.3C284.952 85.5 283.485 87.1667 282.419 89.3C281.352 91.3667 280.852 93.7333 280.919 96.4C280.852 99.0667 281.352 101.433 282.419 103.5C283.485 105.567 284.952 107.2 286.819 108.4C288.752 109.6 290.919 110.2 293.319 110.2ZM356.681 146C352.348 146 348.015 145.367 343.681 144.1C339.415 142.833 335.948 141.2 333.281 139.2L338.881 128C340.281 128.933 341.815 129.733 343.481 130.4C345.215 131.133 347.015 131.7 348.881 132.1C350.748 132.5 352.648 132.7 354.581 132.7C357.981 132.7 360.748 132.2 362.881 131.2C365.015 130.2 366.615 128.667 367.681 126.6C368.748 124.6 369.281 122.067 369.281 119V110.1L372.381 110.6C371.915 112.8 370.748 114.8 368.881 116.6C367.081 118.4 364.848 119.867 362.181 121C359.515 122.067 356.681 122.6 353.681 122.6C348.881 122.6 344.581 121.5 340.781 119.3C337.048 117.033 334.081 113.933 331.881 110C329.748 106 328.681 101.4 328.681 96.2C328.681 90.8667 329.748 86.1667 331.881 82.1C334.015 77.9667 336.948 74.7333 340.681 72.4C344.415 70 348.615 68.8 353.281 68.8C355.281 68.8 357.181 69.0333 358.981 69.5C360.848 69.9667 362.548 70.6 364.081 71.4C365.681 72.1333 367.081 73.0333 368.281 74.1C369.548 75.1 370.548 76.2 371.281 77.4C372.081 78.6 372.615 79.8333 372.881 81.1L369.581 81.9L370.181 69.9H385.381V118.7C385.381 123.033 384.715 126.867 383.381 130.2C382.115 133.6 380.215 136.467 377.681 138.8C375.215 141.2 372.215 143 368.681 144.2C365.148 145.4 361.148 146 356.681 146ZM357.081 110.2C359.681 110.2 361.915 109.633 363.781 108.5C365.715 107.3 367.181 105.667 368.181 103.6C369.248 101.533 369.781 99.1 369.781 96.3C369.781 93.5 369.248 91.0667 368.181 89C367.181 86.8667 365.715 85.2333 363.781 84.1C361.915 82.9 359.681 82.3 357.081 82.3C354.548 82.3 352.348 82.9 350.481 84.1C348.615 85.2333 347.148 86.8667 346.081 89C345.081 91.0667 344.581 93.5 344.581 96.3C344.581 99.1 345.081 101.533 346.081 103.6C347.148 105.667 348.615 107.3 350.481 108.5C352.348 109.633 354.548 110.2 357.081 110.2ZM431.899 124C426.566 124 421.699 123.1 417.299 121.3C412.899 119.5 409.066 116.967 405.799 113.7C402.533 110.433 399.999 106.6 398.199 102.2C396.399 97.8 395.499 92.9667 395.499 87.7C395.499 82.4333 396.399 77.6 398.199 73.2C399.999 68.8 402.533 64.9667 405.799 61.7C409.066 58.4333 412.899 55.9 417.299 54.1C421.699 52.3 426.533 51.4 431.799 51.4C437.066 51.4 441.899 52.3 446.299 54.1C450.699 55.9 454.533 58.4333 457.799 61.7C461.066 64.9667 463.566 68.8 465.299 73.2C467.099 77.6 467.999 82.4333 467.999 87.7C467.999 92.9 467.099 97.7333 465.299 102.2C463.566 106.6 461.066 110.433 457.799 113.7C454.533 116.967 450.699 119.5 446.299 121.3C441.899 123.1 437.099 124 431.899 124ZM431.799 108C434.533 108 437.033 107.5 439.299 106.5C441.633 105.5 443.633 104.1 445.299 102.3C447.033 100.433 448.366 98.2667 449.299 95.8C450.233 93.3333 450.699 90.6333 450.699 87.7C450.699 84.7667 450.233 82.0667 449.299 79.6C448.366 77.1333 447.033 75 445.299 73.2C443.633 71.3333 441.633 69.9 439.299 68.9C437.033 67.9 434.533 67.4 431.799 67.4C429.066 67.4 426.533 67.9 424.199 68.9C421.933 69.9 419.933 71.3333 418.199 73.2C416.466 75 415.133 77.1333 414.199 79.6C413.333 82.0667 412.899 84.7667 412.899 87.7C412.899 90.6333 413.333 93.3667 414.199 95.9C415.133 98.3667 416.466 100.5 418.199 102.3C419.933 104.1 421.933 105.5 424.199 106.5C426.533 107.5 429.066 108 431.799 108ZM497.552 124.1C493.618 124.1 490.252 123.267 487.452 121.6C484.718 119.867 482.585 117.4 481.052 114.2C479.585 111 478.852 107.167 478.852 102.7V69.9H494.952V100.5C494.952 102.633 495.285 104.467 495.952 106C496.618 107.533 497.618 108.733 498.952 109.6C500.285 110.4 501.885 110.8 503.752 110.8C505.152 110.8 506.418 110.567 507.552 110.1C508.752 109.633 509.752 109 510.552 108.2C511.418 107.333 512.085 106.367 512.552 105.3C513.018 104.167 513.252 102.933 513.252 101.6V69.9H529.352V123H514.252L513.552 112.1L516.552 110.9C515.752 113.433 514.418 115.7 512.552 117.7C510.685 119.633 508.452 121.2 505.852 122.4C503.252 123.533 500.485 124.1 497.552 124.1ZM548.012 123V56.5H564.012V123H548.012ZM538.612 83.9V69.9H574.312V83.9H538.612Z" fill="black"/>
<defs>
<clipPath id="clip0_30_7">
<rect width="146" height="148" fill="white"/>
</clipPath>
</defs>
</svg>
